<?xml version="1.0" encoding="UTF-8" standalone="no"?>
<svg
   viewBox="0 0 24 24"
   version="1.1"
   id="svg4"
   sodipodi:docname="favicon.svg"
   inkscape:version="1.2.1 (9c6d41e410, 2022-07-14)"
   xmlns:inkscape="http://www.inkscape.org/namespaces/inkscape"
   xmlns:sodipodi="http://sodipodi.sourceforge.net/DTD/sodipodi-0.dtd"
   xmlns="http://www.w3.org/2000/svg"
   xmlns:svg="http://www.w3.org/2000/svg">
  <defs
     id="defs8" />
  <sodipodi:namedview
     id="namedview6"
     pagecolor="#ffffff"
     bordercolor="#666666"
     borderopacity="1.0"
     inkscape:showpageshadow="2"
     inkscape:pageopacity="0.0"
     inkscape:pagecheckerboard="0"
     inkscape:deskcolor="#d1d1d1"
     showgrid="false"
     inkscape:zoom="24.98444"
     inkscape:cx="6.143824"
     inkscape:cy="12.888022"
     inkscape:window-width="1920"
     inkscape:window-height="992"
     inkscape:window-x="0"
     inkscape:window-y="40"
     inkscape:window-maximized="1"
     inkscape:current-layer="svg4" />
  <path
     d="m 5.1619537,16.176092 a 2.6619537,2.6619537 0 0 1 2.6619536,2.661955 C 7.8239073,20.27892 6.6272493,21.5 5.1619537,21.5 3.7210796,21.5 2.5,20.27892 2.5,18.838047 A 2.6619537,2.6619537 0 0 1 5.1619537,16.176092 M 2.5,2.5 a 19,19 0 0 1 19,19 H 18.044345 A 15.544345,15.544345 0 0 0 2.5,5.9556555 V 2.5 m 0,6.9113113 A 12.088688,12.088688 0 0 1 14.588688,21.5 H 11.133034 A 8.6330333,8.6330333 0 0 0 2.5,12.866965 Z"
     id="path2"
     style="fill:#ee802f;fill-opacity:1;stroke-width:1.22108" />
</svg>
